<svg width="58" height="23" viewBox="0 0 58 23" fill="none" xmlns="http://www.w3.org/2000/svg">
<path d="M27.1408 11.0631V17.915H25V1.00099H30.6778C32.0474 0.974012 33.3771 1.50005 34.3477 2.47119C36.2891 4.30557 36.4088 7.39433 34.5871 9.37708C34.5073 9.45801 34.4275 9.53894 34.3477 9.61987C33.3505 10.5775 32.1272 11.0631 30.6778 11.0631H27.1408ZM27.1408 3.07815V8.98593H30.731C31.5288 9.0129 32.3 8.68919 32.8452 8.1092C33.9621 6.93574 33.9355 5.04741 32.7787 3.91441C32.2335 3.37489 31.5022 3.07815 30.731 3.07815H27.1408Z" fill="#EDF3F9"/>
<path d="M40.8233 5.96454C42.4056 5.96454 43.6555 6.39616 44.573 7.24591C45.4905 8.09565 45.9426 9.2826 45.9426 10.7798V17.915H43.8948V16.3099H43.8018C42.9109 17.6317 41.7407 18.2926 40.2648 18.2926C39.0149 18.2926 37.9511 17.915 37.1134 17.1596C36.289 16.4583 35.8236 15.4197 35.8502 14.3271C35.8502 13.1267 36.3023 12.1825 37.1932 11.4677C38.0841 10.7528 39.2808 10.4021 40.7701 10.4021C42.0466 10.4021 43.0837 10.6449 43.9081 11.1035V10.6044C43.9081 9.86259 43.589 9.16121 43.0305 8.67564C42.4588 8.16309 41.7274 7.87984 40.9695 7.87984C39.7728 7.87984 38.8287 8.39239 38.1373 9.41748L36.2491 8.21705C37.2597 6.71987 38.7888 5.96454 40.8233 5.96454ZM38.0575 14.3676C38.0575 14.9341 38.3234 15.4601 38.7622 15.7839C39.2409 16.1615 39.826 16.3638 40.4243 16.3504C41.3285 16.3504 42.1928 15.9862 42.8311 15.3387C43.5358 14.6643 43.8948 13.8685 43.8948 12.9514C43.23 12.4118 42.2992 12.1421 41.1025 12.1556C40.2382 12.1556 39.5069 12.3714 38.9218 12.7895C38.35 13.2076 38.0575 13.7337 38.0575 14.3676Z" fill="#EDF3F9"/>
<path fill-rule="evenodd" clip-rule="evenodd" d="M57.6972 6.34222L50.5435 23H48.3362L50.9956 17.1731L46.3018 6.34222H48.6287L52.0194 14.6509H52.0593L55.3703 6.34222H57.6972Z" fill="#EDF3F9"/>
<path fill-rule="evenodd" clip-rule="evenodd" d="M17.774 9.90968C17.774 9.30885 17.7257 8.70802 17.629 8.11945H9.42114V11.516H14.1234C13.93 12.6073 13.3014 13.5882 12.3827 14.2013V16.4085H15.1872C16.8311 14.8757 17.774 12.6073 17.774 9.90968Z" fill="#EDF3F9"/>
<path fill-rule="evenodd" clip-rule="evenodd" d="M9.42157 18.542C11.7667 18.542 13.7491 17.7573 15.1876 16.4085L12.3832 14.2013C11.5974 14.7409 10.5941 15.0474 9.42157 15.0474C7.14901 15.0474 5.227 13.4902 4.53798 11.4056H1.64893V13.6863C3.12367 16.666 6.13361 18.542 9.42157 18.542Z" fill="#EDF3F9"/>
<path fill-rule="evenodd" clip-rule="evenodd" d="M4.53771 11.4056C4.17506 10.3143 4.17506 9.12494 4.53771 8.02137V5.75293H1.64865C0.403575 8.24209 0.403575 11.1849 1.64865 13.6741L4.53771 11.4056Z" fill="#EDF3F9"/>
<path fill-rule="evenodd" clip-rule="evenodd" d="M9.42157 4.37956C10.6666 4.35504 11.8634 4.83325 12.7579 5.70384L15.248 3.1779C13.6645 1.68195 11.5853 0.860409 9.42157 0.884933C6.13361 0.884933 3.12367 2.77326 1.64893 5.75289L4.53798 8.0336C5.227 5.93682 7.14901 4.37956 9.42157 4.37956Z" fill="#EDF3F9"/>
</svg>
