<svg width="24" height="24" viewBox="0 0 24 24" fill="none" xmlns="http://www.w3.org/2000/svg">
<path fill-rule="evenodd" clip-rule="evenodd" d="M21 4.5C21 3.67157 20.3284 3 19.5 3H4.5C3.67157 3 3 3.67157 3 4.5V4.5C3 5.32843 3.67157 6 4.5 6H19.5C20.3284 6 21 5.32843 21 4.5V4.5ZM9.75 11.5C9.75 10.6716 10.4216 10 11.25 10H19.5C20.3284 10 21 10.6716 21 11.5V11.5C21 12.3284 20.3284 13 19.5 13H11.25C10.4216 13 9.75 12.3284 9.75 11.5V11.5ZM3 18.5C3 17.6716 3.67157 17 4.5 17H14.25C15.0784 17 15.75 17.6716 15.75 18.5V18.5C15.75 19.3284 15.0784 20 14.25 20H4.5C3.67157 20 3 19.3284 3 18.5V18.5Z" fill="#030A1B"/>
</svg>
