<svg width="24" height="24" viewBox="0 0 24 24" fill="none" xmlns="http://www.w3.org/2000/svg">
<path fill-rule="evenodd" clip-rule="evenodd" d="M3.89142 16.3229C3.77184 16.7215 3.89142 17.0005 4.44947 17.0005H6.30963C6.78796 17.0005 7.00055 16.748 7.12013 16.469C7.12013 16.469 8.0635 14.1571 9.40547 12.669C9.84394 12.2305 10.03 12.0976 10.2691 12.0976C10.3887 12.0976 10.5614 12.2305 10.5614 12.6291V16.3229C10.5614 16.8012 10.6943 17.0005 11.0929 17.0005H14.016C14.3083 17.0005 14.4943 16.7746 14.4943 16.5753C14.4943 16.1236 13.83 16.0173 13.7503 14.7683V12.0312C13.7503 11.4333 13.8566 11.327 14.0957 11.327C14.7202 11.327 16.2615 13.6389 17.165 16.2963C17.351 16.7879 17.5237 17.0005 18.0021 17.0005H19.8622C20.3937 17.0005 20.5 16.748 20.5 16.469C20.5 15.9774 19.8755 13.5326 17.5636 10.3039C16.0223 8.09827 13.8566 6.90245 11.8901 6.90245C10.7076 6.90245 10.5614 7.16818 10.5614 7.61994V9.29409C10.5614 9.82556 10.4551 9.93186 10.0698 9.93186C9.79079 9.93186 9.32575 9.79899 8.22294 8.73604C6.96069 7.47378 6.7481 6.90245 6.0439 6.90245H4.18374C3.65226 6.90245 3.38652 7.16818 3.54597 7.68637C3.71869 8.20456 4.3166 8.96192 5.11382 9.86542C5.55228 10.3836 6.20334 10.9284 6.38935 11.2074C6.66838 11.5661 6.58866 11.7256 6.38935 12.0312C6.38935 12.0445 4.1173 15.2333 3.89142 16.3229V16.3229Z" fill="#030A1B"/>
</svg>
