<svg width="24" height="24" viewBox="0 0 24 24" fill="none" xmlns="http://www.w3.org/2000/svg">
<path d="M3 7.33333C3 6.71449 3.23705 6.121 3.65901 5.68342C4.08097 5.24583 4.65326 5 5.25 5H18.75C19.3467 5 19.919 5.24583 20.341 5.68342C20.7629 6.121 21 6.71449 21 7.33333V8.5H3V7.33333Z" fill="#030A1B"/>
<path fill-rule="evenodd" clip-rule="evenodd" d="M3 10.8333V16.6667C3 17.2855 3.23705 17.879 3.65901 18.3166C4.08097 18.7542 4.65326 19 5.25 19H18.75C19.3467 19 19.919 18.7542 20.341 18.3166C20.7629 17.879 21 17.2855 21 16.6667V10.8333H3ZM6.375 13.1667C6.07663 13.1667 5.79048 13.2896 5.5795 13.5084C5.36853 13.7272 5.25 14.0239 5.25 14.3333V15.5C5.25 15.8094 5.36853 16.1062 5.5795 16.325C5.79048 16.5438 6.07663 16.6667 6.375 16.6667H7.5C7.79837 16.6667 8.08452 16.5438 8.29549 16.325C8.50647 16.1062 8.625 15.8094 8.625 15.5V14.3333C8.625 14.0239 8.50647 13.7272 8.29549 13.5084C8.08452 13.2896 7.79837 13.1667 7.5 13.1667H6.375Z" fill="#030A1B"/>
</svg>
