<svg width="55" height="22" viewBox="0 0 55 22" fill="none" xmlns="http://www.w3.org/2000/svg">
<g clip-path="url(#clip0_2_171)">
<path d="M10.3987 2.83635C9.76406 3.57945 8.74868 4.16556 7.7333 4.08183C7.60637 3.07707 8.10349 2.00951 8.68522 1.35014C9.31983 0.586108 10.4304 0.0418649 11.3294 0C11.4352 1.04662 11.0227 2.07231 10.3987 2.83635ZM11.3189 4.28069C9.84868 4.19696 8.59003 5.10752 7.89195 5.10752C7.1833 5.10752 6.11503 4.32255 4.95156 4.34348C3.43906 4.36441 2.03233 5.21218 1.26022 6.56232C-0.326321 9.26261 0.847718 13.2607 2.38137 15.4586C3.13233 16.5471 4.03137 17.7402 5.21599 17.6984C6.33714 17.6565 6.78137 16.9762 8.13522 16.9762C9.49964 16.9762 9.89099 17.6984 11.0756 17.6774C12.3025 17.6565 13.0746 16.589 13.8256 15.5005C14.6823 14.2655 15.0314 13.0618 15.0525 12.999C15.0314 12.9781 12.6833 12.0885 12.6621 9.40913C12.641 7.16936 14.5131 6.10181 14.5977 6.03901C13.54 4.49001 11.89 4.32255 11.3189 4.28069ZM19.8121 1.24548V17.5623H22.3718V11.9838H25.915C29.1516 11.9838 31.4256 9.78592 31.4256 6.60419C31.4256 3.42245 29.1939 1.24548 25.9996 1.24548H19.8121V1.24548ZM22.3718 3.38059H25.3227C27.5439 3.38059 28.8131 4.55281 28.8131 6.61465C28.8131 8.6765 27.5439 9.85918 25.3121 9.85918H22.3718V3.38059V3.38059ZM36.1006 17.6879C37.7083 17.6879 39.1996 16.882 39.8766 15.6051H39.9295V17.5623H42.2987V9.44053C42.2987 7.08563 40.3948 5.56803 37.465 5.56803C34.7468 5.56803 32.7371 7.10656 32.6631 9.22074H34.9689C35.1593 8.21598 36.1006 7.55661 37.391 7.55661C38.9564 7.55661 39.8343 8.27878 39.8343 9.60799V10.5081L36.64 10.6965C33.6679 10.8744 32.0602 12.078 32.0602 14.1713C32.0602 16.2854 33.7208 17.6879 36.1006 17.6879ZM36.7881 15.7517C35.4237 15.7517 34.5564 15.1028 34.5564 14.1085C34.5564 13.0828 35.392 12.4862 36.9891 12.392L39.8343 12.2141V13.1351C39.8343 14.6632 38.5227 15.7517 36.7881 15.7517ZM45.4612 22C47.9573 22 49.1314 21.058 50.1573 18.2008L54.6525 5.72502H52.0506L49.0362 15.3644H48.9833L45.9689 5.72502H43.2929L47.6295 17.6042L47.3968 18.3264C47.0054 19.5509 46.3708 20.0219 45.2391 20.0219C45.0381 20.0219 44.6468 20.001 44.4881 19.98V21.9372C44.6362 21.9791 45.2708 22 45.4612 22Z" fill="#EDF3F9"/>
</g>
<defs>
<clipPath id="clip0_2_171">
<rect width="54.1538" height="22" fill="white" transform="translate(0.498779)"/>
</clipPath>
</defs>
</svg>
