<svg width="58" height="23" viewBox="0 0 58 23" fill="none" xmlns="http://www.w3.org/2000/svg">
<path d="M27.1408 10.1787V17.0306H25V0.116589H30.6778C32.0474 0.089613 33.3771 0.615648 34.3477 1.58679C36.2891 3.42117 36.4088 6.50993 34.5871 8.49268C34.5073 8.57361 34.4275 8.65454 34.3477 8.73547C33.3505 9.69312 32.1272 10.1787 30.6778 10.1787H27.1408ZM27.1408 2.19375V8.10153H30.731C31.5288 8.1285 32.3 7.80479 32.8452 7.2248C33.9621 6.05134 33.9355 4.16301 32.7787 3.03001C32.2335 2.49049 31.5022 2.19375 30.731 2.19375H27.1408Z" fill="#86909D"/>
<path d="M40.8233 5.08014C42.4056 5.08014 43.6555 5.51176 44.573 6.36151C45.4905 7.21125 45.9426 8.3982 45.9426 9.89538V17.0306H43.8948V15.4255H43.8018C42.9109 16.7473 41.7407 17.4082 40.2648 17.4082C39.0149 17.4082 37.9511 17.0306 37.1134 16.2752C36.289 15.5739 35.8236 14.5353 35.8502 13.4427C35.8502 12.2423 36.3023 11.2981 37.1932 10.5833C38.0841 9.8684 39.2808 9.51771 40.7701 9.51771C42.0466 9.51771 43.0837 9.7605 43.9081 10.2191V9.72004C43.9081 8.97819 43.589 8.27681 43.0305 7.79124C42.4588 7.27869 41.7274 6.99545 40.9695 6.99545C39.7728 6.99545 38.8287 7.50799 38.1373 8.53308L36.2491 7.33265C37.2597 5.83547 38.7888 5.08014 40.8233 5.08014ZM38.0575 13.4832C38.0575 14.0497 38.3234 14.5757 38.7622 14.8995C39.2409 15.2771 39.826 15.4794 40.4243 15.466C41.3285 15.466 42.1928 15.1018 42.8311 14.4543C43.5358 13.7799 43.8948 12.9841 43.8948 12.067C43.23 11.5274 42.2992 11.2577 41.1025 11.2712C40.2382 11.2712 39.5069 11.487 38.9218 11.9051C38.35 12.3232 38.0575 12.8493 38.0575 13.4832Z" fill="#86909D"/>
<path fill-rule="evenodd" clip-rule="evenodd" d="M57.6972 5.45782L50.5435 22.1156H48.3362L50.9956 16.2887L46.3018 5.45782H48.6287L52.0194 13.7665H52.0593L55.3703 5.45782H57.6972Z" fill="#86909D"/>
<path fill-rule="evenodd" clip-rule="evenodd" d="M17.774 9.02528C17.774 8.42445 17.7257 7.82362 17.629 7.23505H9.42114V10.6316H14.1234C13.93 11.7229 13.3014 12.7038 12.3827 13.3169V15.5241H15.1872C16.8311 13.9913 17.774 11.7229 17.774 9.02528Z" fill="#86909D"/>
<path fill-rule="evenodd" clip-rule="evenodd" d="M9.42157 17.6576C11.7667 17.6576 13.7491 16.8729 15.1876 15.5241L12.3832 13.3169C11.5974 13.8565 10.5941 14.163 9.42157 14.163C7.14901 14.163 5.227 12.6058 4.53798 10.5212H1.64893V12.8019C3.12367 15.7816 6.13361 17.6576 9.42157 17.6576Z" fill="#86909D"/>
<path fill-rule="evenodd" clip-rule="evenodd" d="M4.53771 10.5212C4.17506 9.42994 4.17506 8.24054 4.53771 7.13697V4.86853H1.64865C0.403575 7.35769 0.403575 10.3005 1.64865 12.7897L4.53771 10.5212Z" fill="#86909D"/>
<path fill-rule="evenodd" clip-rule="evenodd" d="M9.42157 3.49516C10.6666 3.47064 11.8634 3.94885 12.7579 4.81945L15.248 2.2935C13.6645 0.797555 11.5853 -0.0239901 9.42157 0.000533648C6.13361 0.000533648 3.12367 1.88886 1.64893 4.86849L4.53798 7.1492C5.227 5.05242 7.14901 3.49516 9.42157 3.49516Z" fill="#86909D"/>
</svg>
