<svg width="24" height="24" viewBox="0 0 24 24" fill="none" xmlns="http://www.w3.org/2000/svg">
<path fill-rule="evenodd" clip-rule="evenodd" d="M14.6999 6.40142H18.4797C18.7923 6.40142 19.0481 6.6572 19.0481 6.96981C19.0481 7.28242 18.7923 7.53819 18.4797 7.53819H5.52053C5.20792 7.53819 4.95215 7.28242 4.95215 6.96981C4.95215 6.6572 5.20792 6.40142 5.52053 6.40142H9.30028V4.55418C9.30028 4.24157 9.55606 3.98579 9.86867 3.98579H14.1315C14.4442 3.98579 14.6999 4.24157 14.6999 4.55418V6.40142ZM10.4371 6.40142H13.5347V5.12256H10.4371V6.40142ZM6.91301 17.8259L6.51514 7.53819H17.4565L17.0871 17.8259C17.0302 19.048 16.1492 20.0142 15.0693 20.0142H8.93077C7.85084 20.0142 6.96984 19.048 6.91301 17.8259ZM9.10128 9.55595L9.44231 17.0018C9.44231 17.3144 9.69809 17.5702 10.0107 17.5417L10.3517 17.5133C10.6643 17.5133 10.8917 17.2576 10.8917 16.9449L10.5507 9.49912C10.5507 9.18651 10.2949 8.93073 9.98228 8.95915L9.64125 8.98757C9.32864 8.98757 9.07286 9.24334 9.10128 9.55595ZM13.1936 16.9449C13.1936 17.2291 13.421 17.4849 13.7336 17.5133L14.0746 17.5417C14.3588 17.5417 14.6146 17.3144 14.643 17.0018L14.9841 9.55595C14.9841 9.27176 14.7567 9.01599 14.4441 8.98757L14.1031 8.95915C13.8189 8.95915 13.5631 9.18651 13.5347 9.49912L13.1936 16.9449Z" fill="#030A1B"/>
</svg>
