<svg width="24" height="24" viewBox="0 0 24 24" fill="none" xmlns="http://www.w3.org/2000/svg">
<path d="M10.4147 17.0787H10.4148C11.8198 17.0784 13.1863 16.6316 14.3184 15.8059L17.6894 19.1768L17.8662 19.3535L18.043 19.1768L19.1768 18.043L19.3536 17.8663L19.1768 17.6895L15.8058 14.3186C16.632 13.1865 17.0791 11.8197 17.0794 10.4144V10.4144C17.0794 6.73956 14.0897 3.75 10.4147 3.75C6.73974 3.75 3.75 6.73956 3.75 10.4144C3.75 14.0892 6.73974 17.0787 10.4147 17.0787ZM10.4147 5.85359C12.9299 5.85359 14.9757 7.89931 14.9757 10.4144C14.9757 12.9294 12.9299 14.9751 10.4147 14.9751C7.89948 14.9751 5.85368 12.9294 5.85368 10.4144C5.85368 7.89931 7.89948 5.85359 10.4147 5.85359Z" fill="#030A1B" stroke="#030A1B" stroke-width="0.5"/>
</svg>
