<svg width="24" height="24" viewBox="0 0 24 24" fill="none" xmlns="http://www.w3.org/2000/svg">
<path fill-rule="evenodd" clip-rule="evenodd" d="M5 4C4.44772 4 4 4.44772 4 5V9C4 9.55228 4.44772 10 5 10H9C9.55228 10 10 9.55228 10 9V5C10 4.44772 9.55228 4 9 4H5ZM5 14C4.44772 14 4 14.4477 4 15V19C4 19.5523 4.44772 20 5 20H9C9.55228 20 10 19.5523 10 19V15C10 14.4477 9.55228 14 9 14H5ZM14 5C14 4.44772 14.4477 4 15 4H19C19.5523 4 20 4.44772 20 5V9C20 9.55228 19.5523 10 19 10H15C14.4477 10 14 9.55228 14 9V5ZM15 14C14.4477 14 14 14.4477 14 15V19C14 19.5523 14.4477 20 15 20H19C19.5523 20 20 19.5523 20 19V15C20 14.4477 19.5523 14 19 14H15Z" fill="#030A1B"/>
</svg>
