<svg width="24" height="24" viewBox="0 0 24 24" fill="none" xmlns="http://www.w3.org/2000/svg">
<path d="M4.78947 20H5.68421V8.36842H4.78947C4.31488 8.36842 3.85972 8.55695 3.52412 8.89255C3.18853 9.22814 3 9.6833 3 10.1579V18.2105C3 18.6851 3.18853 19.1403 3.52412 19.4759C3.85972 19.8115 4.31488 20 4.78947 20ZM19.1053 8.36842H12.8421L13.846 5.35495C13.9356 5.086 13.96 4.79962 13.9172 4.5194C13.8744 4.23918 13.7657 3.97313 13.5999 3.74316C13.4342 3.5132 13.2162 3.3259 12.9639 3.1967C12.7116 3.06749 12.4322 3.00007 12.1487 3H11.9474L7.47368 7.86558V20H17.3158L20.816 12.3088L20.8947 11.9474V10.1579C20.8947 9.6833 20.7062 9.22814 20.3706 8.89255C20.035 8.55695 19.5799 8.36842 19.1053 8.36842V8.36842Z" fill="#030A1B"/>
</svg>
