<svg width="24" height="24" viewBox="0 0 24 24" fill="none" xmlns="http://www.w3.org/2000/svg">
<path fill-rule="evenodd" clip-rule="evenodd" d="M17.5056 10.412C17.101 10.5797 16.6671 10.6654 16.229 10.6642H15.8853C15.7977 10.6642 15.7109 10.6814 15.63 10.7149C15.5491 10.7485 15.4756 10.7976 15.4136 10.8596L13.9299 12.3433C13.9144 12.3588 13.9021 12.3772 13.8937 12.3974C13.8853 12.4177 13.881 12.4393 13.881 12.4613C13.881 12.4832 13.8853 12.5048 13.8937 12.5251C13.9021 12.5453 13.9144 12.5637 13.9299 12.5792L19.554 18.2033C19.9705 18.6197 20.2045 19.1845 20.2045 19.7734C20.2045 20.3623 19.9706 20.9271 19.5543 21.3435C19.1379 21.76 18.5731 21.994 17.9842 21.994C17.3953 21.994 16.8305 21.7601 16.414 21.3437L16.4103 21.3396L12.6582 17.5242C12.2895 17.1508 12.0833 16.6468 12.0845 16.1221V15.8912C12.084 15.7163 12.0152 15.5484 11.8928 15.4233L11.4182 14.985C11.2955 14.8712 11.1343 14.8079 10.967 14.8079C10.9097 14.8081 10.8528 14.8155 10.7974 14.83C10.5769 14.8876 10.3499 14.9168 10.122 14.9167C9.40705 14.9166 8.72135 14.6329 8.2153 14.1279L4.65489 10.5675C3.19114 9.10584 2.28448 7.12251 2.28864 5.39751C2.28864 4.35292 2.62573 3.47001 3.25698 2.84459C3.38225 2.7205 3.55158 2.6511 3.72791 2.65157C3.90424 2.65203 4.0732 2.72234 4.19781 2.84709L11.4178 10.0675C11.4333 10.083 11.4517 10.0953 11.4719 10.1037C11.4921 10.1121 11.5138 10.1164 11.5357 10.1164C11.5576 10.1164 11.5793 10.1121 11.5995 10.1037C11.6198 10.0953 11.6382 10.083 11.6536 10.0675L13.1374 8.58334C13.1994 8.52136 13.2486 8.44777 13.2821 8.36676C13.3156 8.28575 13.3329 8.19893 13.3328 8.11125V7.76834C13.3316 7.33025 13.4173 6.89627 13.5849 6.49153C13.7525 6.08679 13.9988 5.71933 14.3095 5.41042L17.5157 2.20418C17.6462 2.07365 17.8232 2.00023 18.0078 2.00001C18.1707 1.99911 18.328 2.05933 18.4486 2.16876C18.5155 2.22942 18.5693 2.30303 18.6068 2.38511C18.6443 2.46718 18.6648 2.55603 18.667 2.64626C18.6692 2.73649 18.653 2.82622 18.6195 2.91002C18.586 2.99382 18.5358 3.06994 18.472 3.13376L15.6249 5.98001C15.4257 6.17917 15.4153 6.51584 15.6145 6.71501C15.7105 6.8109 15.8406 6.86477 15.9763 6.86477C16.112 6.86477 16.2422 6.8109 16.3382 6.71501L19.1828 3.87084C19.3133 3.74024 19.4903 3.6668 19.6749 3.66667C19.8378 3.66578 19.9951 3.72599 20.1157 3.83542C20.1825 3.89609 20.2364 3.96969 20.2739 4.05177C20.3114 4.13385 20.3319 4.2227 20.3341 4.31293C20.3363 4.40316 20.3201 4.49289 20.2866 4.57669C20.2531 4.66048 20.2029 4.7366 20.139 4.80042L17.292 7.6475C17.0928 7.84667 17.082 8.18334 17.2815 8.3825C17.3776 8.4784 17.5077 8.53227 17.6434 8.53227C17.7791 8.53227 17.9093 8.4784 18.0053 8.3825L20.8649 5.52501C20.9287 5.46112 21.0048 5.41087 21.0887 5.37731C21.1725 5.34374 21.2623 5.32756 21.3526 5.32974C21.4429 5.33192 21.5318 5.35243 21.6139 5.39C21.696 5.42758 21.7696 5.48145 21.8303 5.54834C22.072 5.81459 22.0486 6.22751 21.7949 6.48126L18.5865 9.6875C18.2777 9.99812 17.9103 10.2444 17.5056 10.412ZM7.27374 15.0729C8.03127 15.8249 9.05472 16.2478 10.1221 16.25C10.2637 16.2492 10.4051 16.241 10.5458 16.2254C10.5717 16.2224 10.5979 16.2247 10.6229 16.2321C10.6479 16.2395 10.6711 16.2519 10.6911 16.2685C10.7112 16.2852 10.7276 16.3057 10.7396 16.3288C10.7515 16.352 10.7586 16.3773 10.7604 16.4033V16.4142C10.7631 16.4424 10.7595 16.471 10.75 16.4977C10.7405 16.5245 10.7253 16.5489 10.7054 16.5692L5.98208 21.315C5.76577 21.5328 5.50841 21.7054 5.22489 21.823C4.94137 21.9406 4.63734 22.0007 4.33041 22C3.43791 22 2.62208 21.5 2.20167 20.6392C2.17781 20.5905 2.15707 20.5404 2.13958 20.4892C1.82708 19.5792 2.0525 18.65 2.68375 18.0187L6.22541 14.4954C6.2879 14.4331 6.37256 14.3981 6.46083 14.3981C6.54909 14.3981 6.63376 14.4331 6.69625 14.4954L7.27374 15.0729Z" fill="#030A1B"/>
</svg>
