<svg width="24" height="24" viewBox="0 0 24 24" fill="none" xmlns="http://www.w3.org/2000/svg">
<path fill-rule="evenodd" clip-rule="evenodd" d="M18 4C19.32 4 20.4 5.08 20.4 6.4V9.58C20.4 10.12 20.22 10.648 19.872 11.08L15.696 16.3C15.24 16.864 14.556 17.2 13.824 17.2H9.6C9.6 19.192 7.992 20.8 6 20.8C4.008 20.8 2.4 19.192 2.4 17.2H1.2C0.54 17.2 0 16.66 0 16V13.6C0 10.948 2.148 8.8 4.8 8.8H8.4C9.06 8.8 9.6 9.34 9.6 10V14.8H13.824L18 9.58V6.4H15.6C14.94 6.4 14.4 5.86 14.4 5.2C14.4 4.54 14.94 4 15.6 4H18ZM4.8 17.2C4.8 17.86 5.34 18.4 6 18.4C6.66 18.4 7.2 17.86 7.2 17.2H4.8ZM8.4 5.2H4.8C4.14 5.2 3.6 5.74 3.6 6.4C3.6 7.06 4.14 7.6 4.8 7.6H8.4C9.06 7.6 9.6 7.06 9.6 6.4C9.6 5.74 9.06 5.2 8.4 5.2ZM16.8 17.2C16.8 15.208 18.408 13.6 20.4 13.6C22.392 13.6 24 15.208 24 17.2C24 19.192 22.392 20.8 20.4 20.8C18.408 20.8 16.8 19.192 16.8 17.2ZM19.2 17.2C19.2 17.86 19.74 18.4 20.4 18.4C21.06 18.4 21.6 17.86 21.6 17.2C21.6 16.54 21.06 16 20.4 16C19.74 16 19.2 16.54 19.2 17.2Z" fill="#030A1B"/>
</svg>
