<svg width="36" height="22" viewBox="0 0 36 22" fill="none" xmlns="http://www.w3.org/2000/svg">
<path fill-rule="evenodd" clip-rule="evenodd" d="M22.319 19.6856H12.8442V2.65771H22.319V19.6856Z" fill="#949494"/>
<path fill-rule="evenodd" clip-rule="evenodd" d="M13.4508 11.1697C13.4508 7.7155 15.068 4.63861 17.5865 2.65575C15.7448 1.20578 13.4205 0.340338 10.8944 0.340338C4.9141 0.340338 0.0664062 5.18872 0.0664062 11.1697C0.0664062 17.1506 4.9141 21.999 10.8944 21.999C13.4205 21.999 15.7448 21.1336 17.5865 19.6836C15.068 17.7007 13.4508 14.6239 13.4508 11.1697" fill="#86909D"/>
<path fill-rule="evenodd" clip-rule="evenodd" d="M35.097 11.1697C35.097 17.1506 30.2493 21.999 24.269 21.999C21.7429 21.999 19.4186 21.1336 17.5762 19.6836C20.0954 17.7007 21.7127 14.6239 21.7127 11.1697C21.7127 7.7155 20.0954 4.63861 17.5762 2.65575C19.4186 1.20578 21.7429 0.340338 24.269 0.340338C30.2493 0.340338 35.097 5.18872 35.097 11.1697" fill="#EDF3F9"/>
</svg>
