<svg width="63" height="18" viewBox="0 0 63 18" fill="none" xmlns="http://www.w3.org/2000/svg">
<path fill-rule="evenodd" clip-rule="evenodd" d="M17.2927 0.0779987V0.0703125H22.8264V17.6706H17.2927V7.22571H16.8315L13.6035 17.6706H9.76069L6.53269 7.21802H6.30212H6.07155V17.6706H0.537842V0.0703125H6.07155C6.07155 0.0703125 8.50024 0.0626273 9.14584 2.37603C9.74532 4.53571 11.4515 10.5229 11.4515 10.5229H11.9127C11.9588 10.3615 13.6266 4.50497 14.2184 2.38371C14.8627 0.0749922 17.2752 0.0779771 17.2926 0.0779986L17.2927 0.0779987ZM35.1238 1.91488C35.8847 0.216341 37.5064 0.0703125 37.5064 0.0703125H42.7326V17.6706H37.1989V7.21802H36.7378L32.8949 15.826C32.1341 17.5169 30.4355 17.6706 30.4355 17.6706H25.2092V0.0703125H30.7429V10.5229H31.2041L35.1238 1.91488ZM45.1919 8.06348V17.6706H50.7256V12.06H56.7205C59.3336 12.06 61.5471 10.3922 62.3695 8.06348H45.1919ZM44.4153 0.0703125H56.7201C60.0326 0.0703125 62.715 2.75262 62.715 6.06517C62.715 6.48788 62.6765 6.89522 62.592 7.29488H53.1078C52.3085 7.29488 51.5322 7.18728 50.7944 6.98745C47.5434 6.11128 45.0301 3.42128 44.4153 0.0703125Z" fill="#EDF3F9"/>
</svg>
