<svg width="57" height="18" viewBox="0 0 57 18" fill="none" xmlns="http://www.w3.org/2000/svg">
<path fill-rule="evenodd" clip-rule="evenodd" d="M20.1494 17.5909L22.8456 0.946289H27.1577L24.4596 17.5909H20.1494" fill="#DDEAFB"/>
<path fill-rule="evenodd" clip-rule="evenodd" d="M41.1728 0.783052C40.2473 0.439038 38.7973 0.0703125 36.9861 0.0703125C32.3707 0.0703125 29.1191 2.37241 29.0915 5.67175C29.0656 8.11074 31.4128 9.47151 33.1846 10.2834C35.0026 11.1152 35.6142 11.6458 35.6054 12.3888C35.5939 13.5265 34.1533 14.0464 32.8107 14.0464C30.9411 14.0464 29.948 13.7892 28.4139 13.1555L27.8118 12.8856L27.1562 16.6854C28.2475 17.1591 30.2651 17.5698 32.3596 17.5909C37.2701 17.5909 40.4574 15.3152 40.4939 11.7918C40.5116 9.86104 39.2667 8.39135 36.5722 7.18014C34.9393 6.3949 33.9393 5.87075 33.9498 5.07574C33.9498 4.37016 34.7961 3.6158 36.625 3.6158C38.1525 3.59239 39.2588 3.92209 40.1209 4.26611L40.5395 4.46185L41.1728 0.783052" fill="#DDEAFB"/>
<path fill-rule="evenodd" clip-rule="evenodd" d="M52.3147 0.946289H48.733C47.6235 0.946289 46.7931 1.24268 46.3058 2.32744L39.4219 17.5909H44.2894C44.2894 17.5909 45.0852 15.5385 45.2653 15.088C45.7973 15.088 50.5253 15.095 51.2013 15.095C51.3401 15.6779 51.7655 17.5909 51.7655 17.5909H56.0665L52.3147 0.946289M46.5986 11.6813C46.9817 10.7217 48.4454 7.02552 48.4454 7.02552C48.4177 7.06987 48.8258 6.06136 49.0597 5.43604L49.3731 6.87206C49.3731 6.87206 50.2608 10.8477 50.4462 11.6813H46.5986" fill="#DDEAFB"/>
<path fill-rule="evenodd" clip-rule="evenodd" d="M16.29 0.946289L11.9136 12.3149L11.4474 10.0044C10.6328 7.34099 8.0944 4.45564 5.25635 3.01122L9.25802 17.5909L13.9876 17.5855L21.0249 0.946289H16.29" fill="#DDEAFB"/>
<path fill-rule="evenodd" clip-rule="evenodd" d="M7.0334 0.0708008H0.0553523L0 0.439341C5.42909 1.9057 9.02121 5.44925 10.5124 9.70715L8.99506 1.56634C8.73289 0.444432 7.97317 0.109827 7.0334 0.0708008" fill="#DDEAFB"/>
</svg>
