<svg width="111" height="22" viewBox="0 0 111 22" fill="none" xmlns="http://www.w3.org/2000/svg">
<path fill-rule="evenodd" clip-rule="evenodd" d="M7.03001 1.63867H5.99643C4.43345 1.63867 2.92114 2.67225 2.92114 5.67227C2.92114 8.57117 4.3073 9.50403 5.99643 9.50403H7.03001V1.63867ZM5.41598 11.1175L2.34069 18.0247H0.0969238L3.47518 10.6383C1.88655 9.8316 0.827745 8.36954 0.827745 5.67227C0.827745 1.89076 3.22268 0 6.07153 0H8.97064V18.0247H7.02942V11.1175H5.41598V11.1175Z" fill="#86909D"/>
<path fill-rule="evenodd" clip-rule="evenodd" d="M46.6884 11.6718C46.6884 7.68847 48.2265 5.14258 51.2013 5.14258C52.3354 5.14258 52.9909 5.44512 53.5456 5.79771L53.2683 7.66366C52.7389 7.20952 51.9826 6.78125 51.1759 6.78125C49.7641 6.78125 48.7559 8.36925 48.7559 11.5709C48.7559 14.7471 49.512 16.5626 51.1002 16.5626C52.0581 16.5626 52.7893 16.1844 53.243 15.7811L53.6967 17.243C53.0162 17.8226 52.2095 18.2008 51.0497 18.2008C48.327 18.2008 46.6884 16.008 46.6884 11.6718ZM40.9408 11.6962V18.024H38.9744V5.31836H40.9408V11.1923L43.9911 5.31836H45.9828L42.8316 11.2932L46.4363 18.024H44.2936L40.9408 11.6962ZM31.688 10.5117H34.9401C34.9401 8.34358 34.5871 6.75537 33.4528 6.75537C32.2426 6.75537 31.8141 8.24266 31.688 10.5117ZM33.8572 18.2008C31.2354 18.2008 29.6222 16.1089 29.6222 12.2016C29.6222 8.11716 30.7567 5.14258 33.454 5.14258C35.5716 5.14258 36.9582 6.73058 36.9582 11.0411V12.1255H31.6639C31.6639 14.9996 32.4706 16.5121 34.0336 16.5121C35.1429 16.5121 36.0253 16.008 36.5295 15.6552L36.9834 17.1668C36.1767 17.7976 35.1176 18.2008 33.8572 18.2008ZM25.4872 6.90723H23.2939V7.1345C23.2939 9.80654 23.1679 13.7136 22.1091 16.4113H25.4872V6.90723ZM28.4364 20.5199H26.672V18.024H21.2266V20.5199H19.4622V16.4106H20.2436C21.403 13.7129 21.5291 9.78065 21.5291 6.4024V5.31836H27.4282V16.4106H28.4364V20.5199ZM18.3278 5.31836V18.024H16.3866V12.327H13.4623V18.024H11.4958V5.31836H13.4623V10.7129H16.3866V5.31836H18.3278V5.31836Z" fill="#86909D"/>
<path fill-rule="evenodd" clip-rule="evenodd" d="M65.7315 1.0332H61.8242C61.7483 5.596 61.6222 9.07496 61.4205 11.6717C61.1937 14.3688 60.7902 16.1586 60.1099 16.9912H65.7315V1.0332ZM67.0668 18.0247H59.3528L59.176 21.0248H58.1931V16.9916H58.7225C59.6049 16.2599 60.0332 14.2434 60.2853 11.6721C60.5374 9.00007 60.6131 5.01651 60.689 0H66.9911V16.9916H68.227V21.0248H67.243L67.0668 18.0247V18.0247Z" fill="#86909D"/>
<path fill-rule="evenodd" clip-rule="evenodd" d="M70.6744 10.9402H75.2885C75.4897 7.5626 74.4816 6.05029 73.1959 6.05029C71.8598 6.05029 70.7754 7.76423 70.6744 10.9402ZM73.4472 17.2437C75.1359 17.2437 76.0183 15.8827 76.0183 15.8827L76.3968 16.8398C76.3968 16.8398 75.4389 18.2768 73.4224 18.2768C70.7253 18.2768 69.4895 15.8314 69.4895 11.6725C69.4895 7.51277 71.0523 5.06738 73.1955 5.06738C75.3884 5.06738 76.7998 7.36182 76.3968 11.8746H70.6492C70.6997 15.3531 71.6069 17.2437 73.4472 17.2437V17.2437Z" fill="#86909D"/>
<path fill-rule="evenodd" clip-rule="evenodd" d="M84.1637 11.8988H79.8276V18.0245H78.6431V5.31885H79.8276V10.9402H84.1637V5.31885H85.3483V18.0245H84.1637V11.8988" fill="#86909D"/>
<path fill-rule="evenodd" clip-rule="evenodd" d="M89.3326 10.9658V17.0916H90.0893C91.879 17.0916 93.0891 16.2098 93.0891 14.0163C93.0891 11.8739 92.0305 10.9658 90.2151 10.9658H89.3326ZM88.1489 5.31934H89.3328V10.0337H90.2665C92.6863 10.0337 94.2493 11.3446 94.2493 13.9918C94.2493 16.6889 92.5854 18.025 90.1904 18.025H88.1489V5.31934V5.31934Z" fill="#86909D"/>
<path fill-rule="evenodd" clip-rule="evenodd" d="M97.4516 6.30239V18.0245H96.2925V5.31885H101.662V6.30239H97.4516" fill="#86909D"/>
<path fill-rule="evenodd" clip-rule="evenodd" d="M109.404 9.17605C109.404 8.5205 109.453 7.96587 109.505 7.43646H109.429C109.252 7.9911 109.025 8.5205 108.748 9.07513L104.614 18.0245H103.606V5.31885H104.715V14.1421C104.715 14.8227 104.664 15.3773 104.614 15.9319H104.689C104.866 15.3525 105.117 14.7979 105.37 14.2432L109.505 5.31885H110.538V18.0245H109.404V9.17605" fill="#86909D"/>
</svg>
